<?xml version="1.0" encoding="utf-8"?>
<!-- Generator: Adobe Illustrator 24.0.3, SVG Export Plug-In . SVG Version: 6.00 Build 0)  -->
<svg version="1.1" id="Layer_1" xmlns="http://www.w3.org/2000/svg" xmlns:xlink="http://www.w3.org/1999/xlink" x="0px" y="0px"
	 viewBox="0 0 250 250" style="enable-background:new 0 0 250 250;" xml:space="preserve">
<g fill="#fba23b">
	<path d="M198.6,41.1c-19.2-19.2-45.7-31.1-75-31.1c-29.3,0-55.8,11.9-75,31.1c-19.2,19.2-31.1,45.7-31.1,75c0,0.7,0,1.3,0,1.8
		c0,0.2,0,0.3,0,0.5l4,111c0.1,2.3,1.3,4.4,3.3,5.6c1.9,1.2,4.4,1.4,6.5,0.5l49.9-22.2c13,5.7,27.4,8.9,42.5,8.9
		c29.3,0,55.8-11.9,75-31.1c19.2-19.2,31.1-45.7,31.1-75C229.7,86.8,217.8,60.2,198.6,41.1z M188.8,181.2
		c-16.7,16.7-39.7,27-65.2,27c-14.2,0-27.5-3.2-39.5-8.9c-1.8-0.9-3.9-0.9-5.8-0.1L35,218.6l-3.6-100.3c0-0.1,0-0.2,0-0.4
		c0-0.8-0.1-1.4,0-1.9c0-25.5,10.3-48.5,27-65.2c16.7-16.7,39.7-27,65.2-27c25.5,0,48.5,10.3,65.2,27c16.7,16.7,27,39.7,27,65.2
		C215.8,141.5,205.5,164.5,188.8,181.2z"/>
	<path d="M123.6,92.3c-6.5,0-12.5,2.7-16.8,7c-4.3,4.3-7,10.3-7,16.8c0,6.5,2.7,12.5,7,16.8c4.3,4.3,10.3,7,16.8,7
		c6.5,0,12.5-2.7,16.8-7c4.3-4.3,7-10.3,7-16.8c0-6.5-2.7-12.5-7-16.8C136.1,94.9,130.1,92.3,123.6,92.3z M130.6,123.1
		c-1.8,1.8-4.2,2.9-7,2.9c-2.8,0-5.2-1.1-7-2.9c-1.8-1.8-2.9-4.3-2.9-7c0-2.8,1.1-5.2,2.9-7c1.8-1.8,4.3-2.9,7-2.9
		c2.8,0,5.2,1.1,7,2.9c1.8,1.8,2.9,4.3,2.9,7C133.5,118.8,132.4,121.3,130.6,123.1z"/>
	<path d="M164.2,75.4c-10.4-10.4-24.8-16.8-40.7-16.8c-15.9,0-30.3,6.4-40.7,16.8c-10.4,10.4-16.8,24.8-16.8,40.7
		c0,15.8,6.4,30.2,16.8,40.6c2.7,2.7,7.1,2.7,9.8,0c2.7-2.7,2.7-7.1,0-9.8C84.8,139,80,128.1,80,116.1c0-12.1,4.9-22.9,12.8-30.8
		c7.9-7.9,18.8-12.8,30.8-12.8c12.1,0,22.9,4.9,30.8,12.8c7.9,7.9,12.8,18.8,12.8,30.8c0,12.3-5,23.3-13.2,31.2
		c-2.7,2.7-2.8,7.1-0.1,9.8c2.7,2.7,7.1,2.8,9.8,0.1h0c10.7-10.4,17.4-25,17.3-41.1C181.1,100.2,174.6,85.8,164.2,75.4z"/>
</g>
</svg>
